<svg xmlns="http://www.w3.org/2000/svg" xmlns:xlink="http://www.w3.org/1999/xlink" width="2000" zoomAndPan="magnify" viewBox="0 0 1500 1499.999933" height="2000" preserveAspectRatio="xMidYMid meet" version="1.0"><defs><g/><clipPath id="7bcec153f3"><rect x="0" width="389" y="0" height="226"/></clipPath><clipPath id="f68560b434"><rect x="0" width="393" y="0" height="213"/></clipPath></defs><g fill="#00c061" fill-opacity="1"><g transform="translate(556.046992, 1027.467084)"><g><path d="M 8.734375 -20.15625 C 9.804688 -20.15625 10.851562 -20 11.875 -19.6875 C 12.90625 -19.375 13.664062 -19.066406 14.15625 -18.765625 L 14.875 -18.28125 L 13.0625 -14.6875 C 12.914062 -14.78125 12.710938 -14.898438 12.453125 -15.046875 C 12.203125 -15.203125 11.722656 -15.410156 11.015625 -15.671875 C 10.304688 -15.929688 9.648438 -16.0625 9.046875 -16.0625 C 8.296875 -16.0625 7.71875 -15.898438 7.3125 -15.578125 C 6.90625 -15.253906 6.703125 -14.820312 6.703125 -14.28125 C 6.703125 -14.007812 6.796875 -13.753906 6.984375 -13.515625 C 7.171875 -13.285156 7.492188 -13.039062 7.953125 -12.78125 C 8.421875 -12.519531 8.832031 -12.304688 9.1875 -12.140625 C 9.539062 -11.984375 10.085938 -11.742188 10.828125 -11.421875 C 12.109375 -10.878906 13.195312 -10.140625 14.09375 -9.203125 C 15 -8.265625 15.453125 -7.207031 15.453125 -6.03125 C 15.453125 -4.882812 15.25 -3.890625 14.84375 -3.046875 C 14.4375 -2.203125 13.875 -1.539062 13.15625 -1.0625 C 12.445312 -0.582031 11.660156 -0.226562 10.796875 0 C 9.929688 0.238281 8.992188 0.359375 7.984375 0.359375 C 7.128906 0.359375 6.285156 0.269531 5.453125 0.09375 C 4.617188 -0.0820312 3.921875 -0.300781 3.359375 -0.5625 C 2.796875 -0.820312 2.289062 -1.082031 1.84375 -1.34375 C 1.394531 -1.601562 1.066406 -1.816406 0.859375 -1.984375 L 0.546875 -2.25 L 2.8125 -6.046875 C 3 -5.890625 3.257812 -5.6875 3.59375 -5.4375 C 3.9375 -5.1875 4.535156 -4.851562 5.390625 -4.4375 C 6.242188 -4.019531 7 -3.8125 7.65625 -3.8125 C 9.5625 -3.8125 10.515625 -4.460938 10.515625 -5.765625 C 10.515625 -6.035156 10.445312 -6.285156 10.3125 -6.515625 C 10.175781 -6.742188 9.9375 -6.972656 9.59375 -7.203125 C 9.25 -7.441406 8.941406 -7.628906 8.671875 -7.765625 C 8.410156 -7.898438 7.976562 -8.109375 7.375 -8.390625 C 6.78125 -8.671875 6.335938 -8.882812 6.046875 -9.03125 C 4.847656 -9.613281 3.921875 -10.347656 3.265625 -11.234375 C 2.609375 -12.128906 2.28125 -13.085938 2.28125 -14.109375 C 2.28125 -15.890625 2.9375 -17.34375 4.25 -18.46875 C 5.5625 -19.59375 7.054688 -20.15625 8.734375 -20.15625 Z M 8.734375 -20.15625 "/></g></g></g><g fill="#00c061" fill-opacity="1"><g transform="translate(572.655023, 1027.467084)"><g><path d="M 5.953125 -19.796875 L 5.953125 -3.953125 L 12.765625 -3.953125 L 12.765625 0 L 1.4375 0 L 1.4375 -19.796875 Z M 5.953125 -19.796875 "/></g></g></g><g fill="#00c061" fill-opacity="1"><g transform="translate(587.055042, 1027.467084)"><g><path d="M 11.5 -19.796875 L 19.484375 0 L 14.640625 0 L 13.171875 -3.953125 L 5.640625 -3.953125 L 4.171875 0 L -0.671875 0 L 7.3125 -19.796875 Z M 11.640625 -7.921875 L 9.4375 -13.6875 L 9.390625 -13.6875 L 7.171875 -7.921875 Z M 11.640625 -7.921875 "/></g></g></g><g fill="#00c061" fill-opacity="1"><g transform="translate(604.19108, 1027.467084)"><g><path d="M -0.71875 -19.796875 L 4.703125 -19.796875 L 8.828125 -13.46875 L 12.953125 -19.796875 L 18.390625 -19.796875 L 11.09375 -8.875 L 11.09375 0 L 6.578125 0 L 6.578125 -8.875 Z M -0.71875 -19.796875 "/></g></g></g><g fill="#00c061" fill-opacity="1"><g transform="translate(622.335114, 1027.467084)"><g/></g></g><g fill="#00c061" fill-opacity="1"><g transform="translate(629.36713, 1027.467084)"><g><path d="M 5.953125 -19.796875 L 5.953125 0 L 1.4375 0 L 1.4375 -19.796875 Z M 5.953125 -19.796875 "/></g></g></g><g fill="#00c061" fill-opacity="1"><g transform="translate(637.239143, 1027.467084)"><g><path d="M 5.953125 -12.28125 L 5.953125 0 L 1.4375 0 L 1.4375 -19.796875 L 5.953125 -19.796875 L 13.828125 -7.515625 L 13.875 -7.515625 L 13.875 -19.796875 L 18.390625 -19.796875 L 18.390625 0 L 13.875 0 L 6 -12.28125 Z M 5.953125 -12.28125 "/></g></g></g><g fill="#00c061" fill-opacity="1"><g transform="translate(657.54318, 1027.467084)"><g/></g></g><g fill="#00c061" fill-opacity="1"><g transform="translate(664.575196, 1027.467084)"><g><path d="M 1.4375 -19.796875 L 7.171875 -19.796875 C 9.921875 -19.796875 12.269531 -18.851562 14.21875 -16.96875 C 16.175781 -15.09375 17.15625 -12.738281 17.15625 -9.90625 C 17.15625 -7.0625 16.179688 -4.695312 14.234375 -2.8125 C 12.296875 -0.9375 9.941406 0 7.171875 0 L 1.4375 0 Z M 5.953125 -4.03125 L 6.640625 -4.03125 C 8.296875 -4.03125 9.644531 -4.585938 10.6875 -5.703125 C 11.738281 -6.816406 12.269531 -8.210938 12.28125 -9.890625 C 12.28125 -11.566406 11.753906 -12.960938 10.703125 -14.078125 C 9.660156 -15.203125 8.304688 -15.765625 6.640625 -15.765625 L 5.953125 -15.765625 Z M 5.953125 -4.03125 "/></g></g></g><g fill="#00c061" fill-opacity="1"><g transform="translate(682.767226, 1027.467084)"><g><path d="M 1.4375 -19.796875 L 8.515625 -19.796875 C 10.421875 -19.796875 11.972656 -19.285156 13.171875 -18.265625 C 14.367188 -17.253906 14.96875 -15.804688 14.96875 -13.921875 C 14.96875 -12.460938 14.601562 -11.238281 13.875 -10.25 C 13.15625 -9.269531 12.171875 -8.582031 10.921875 -8.1875 L 17.734375 0 L 12 0 L 5.953125 -7.828125 L 5.953125 0 L 1.4375 0 Z M 5.953125 -11.015625 L 6.484375 -11.015625 C 6.898438 -11.015625 7.25 -11.019531 7.53125 -11.03125 C 7.820312 -11.050781 8.148438 -11.109375 8.515625 -11.203125 C 8.890625 -11.304688 9.1875 -11.441406 9.40625 -11.609375 C 9.632812 -11.785156 9.828125 -12.039062 9.984375 -12.375 C 10.140625 -12.71875 10.21875 -13.128906 10.21875 -13.609375 C 10.21875 -14.085938 10.140625 -14.492188 9.984375 -14.828125 C 9.828125 -15.171875 9.632812 -15.425781 9.40625 -15.59375 C 9.1875 -15.769531 8.890625 -15.90625 8.515625 -16 C 8.148438 -16.101562 7.820312 -16.160156 7.53125 -16.171875 C 7.25 -16.191406 6.898438 -16.203125 6.484375 -16.203125 L 5.953125 -16.203125 Z M 5.953125 -11.015625 "/></g></g></g><g fill="#00c061" fill-opacity="1"><g transform="translate(700.43126, 1027.467084)"><g><path d="M 5.953125 -19.796875 L 5.953125 0 L 1.4375 0 L 1.4375 -19.796875 Z M 5.953125 -19.796875 "/></g></g></g><g fill="#00c061" fill-opacity="1"><g transform="translate(708.303273, 1027.467084)"><g><path d="M 1.4375 -19.796875 L 8.65625 -19.796875 C 10.675781 -19.796875 12.3125 -19.273438 13.5625 -18.234375 C 14.8125 -17.203125 15.4375 -15.691406 15.4375 -13.703125 C 15.4375 -11.722656 14.800781 -10.164062 13.53125 -9.03125 C 12.269531 -7.90625 10.644531 -7.34375 8.65625 -7.34375 L 5.953125 -7.34375 L 5.953125 0 L 1.4375 0 Z M 5.953125 -10.9375 L 7.21875 -10.9375 C 8.226562 -10.9375 9.054688 -11.140625 9.703125 -11.546875 C 10.359375 -11.960938 10.6875 -12.632812 10.6875 -13.5625 C 10.6875 -14.5 10.359375 -15.171875 9.703125 -15.578125 C 9.054688 -15.992188 8.226562 -16.203125 7.21875 -16.203125 L 5.953125 -16.203125 Z M 5.953125 -10.9375 "/></g></g></g><g transform="matrix(1, 0, 0, 1, 355, 758)"><g clip-path="url(#7bcec153f3)"><g fill="#00c061" fill-opacity="1"><g transform="translate(1.516999, 176.134539)"><g><path d="M 17.109375 -1.0625 C 17.109375 -1.0625 17.09375 -2.210938 17.0625 -4.515625 C 17.03125 -6.828125 17 -10.003906 16.96875 -14.046875 C 16.945312 -18.097656 16.921875 -22.78125 16.890625 -28.09375 C 16.859375 -33.414062 16.8125 -39.148438 16.75 -45.296875 C 16.695312 -51.453125 16.65625 -57.75 16.625 -64.1875 C 16.59375 -70.632812 16.578125 -76.988281 16.578125 -83.25 C 16.578125 -89.519531 16.578125 -95.472656 16.578125 -101.109375 C 16.578125 -106.753906 16.578125 -111.804688 16.578125 -116.265625 C 16.578125 -120.734375 16.601562 -124.414062 16.65625 -127.3125 C 16.71875 -130.207031 16.8125 -132.007812 16.9375 -132.71875 C 19 -132.894531 21.992188 -133 25.921875 -133.03125 C 29.859375 -133.0625 34.382812 -132.957031 39.5 -132.71875 C 44.613281 -132.488281 49.992188 -132.019531 55.640625 -131.3125 C 61.285156 -130.601562 66.925781 -129.625 72.5625 -128.375 C 78.207031 -127.132812 83.515625 -125.523438 88.484375 -123.546875 C 93.453125 -121.566406 97.765625 -119.160156 101.421875 -116.328125 C 102.722656 -114.015625 103.921875 -111.070312 105.015625 -107.5 C 106.109375 -103.925781 107.082031 -99.96875 107.9375 -95.625 C 108.800781 -91.28125 109.554688 -86.769531 110.203125 -82.09375 C 110.859375 -77.425781 111.390625 -72.816406 111.796875 -68.265625 C 112.210938 -63.710938 112.476562 -59.425781 112.59375 -55.40625 C 112.71875 -50.445312 112.644531 -45.984375 112.375 -42.015625 C 112.113281 -38.054688 111.460938 -34.363281 110.421875 -30.9375 C 109.390625 -27.507812 107.851562 -24.109375 105.8125 -20.734375 C 103.78125 -17.367188 101.078125 -13.769531 97.703125 -9.9375 C 96.878906 -8.925781 95.09375 -8.035156 92.34375 -7.265625 C 89.59375 -6.503906 86.222656 -5.828125 82.234375 -5.234375 C 78.242188 -4.640625 73.898438 -4.117188 69.203125 -3.671875 C 64.503906 -3.234375 59.710938 -2.851562 54.828125 -2.53125 C 49.953125 -2.207031 45.269531 -1.953125 40.78125 -1.765625 C 36.289062 -1.585938 32.253906 -1.441406 28.671875 -1.328125 C 25.097656 -1.210938 22.273438 -1.140625 20.203125 -1.109375 C 18.140625 -1.078125 17.109375 -1.0625 17.109375 -1.0625 Z M 43.171875 -32.1875 L 64.1875 -30.9375 C 65.019531 -32.300781 65.726562 -34.398438 66.3125 -37.234375 C 66.90625 -40.078125 67.378906 -43.300781 67.734375 -46.90625 C 68.085938 -50.507812 68.296875 -54.242188 68.359375 -58.109375 C 68.421875 -61.984375 68.316406 -65.691406 68.046875 -69.234375 C 67.785156 -72.785156 67.34375 -75.890625 66.71875 -78.546875 C 66.09375 -81.210938 65.25 -83.109375 64.1875 -84.234375 C 63.59375 -84.234375 62.484375 -84.1875 60.859375 -84.09375 C 59.234375 -84.007812 57.398438 -83.90625 55.359375 -83.78125 C 53.328125 -83.664062 51.347656 -83.546875 49.421875 -83.421875 C 47.503906 -83.304688 45.910156 -83.203125 44.640625 -83.109375 C 43.367188 -83.023438 42.734375 -82.984375 42.734375 -82.984375 C 42.734375 -82.984375 42.703125 -82.1875 42.640625 -80.59375 C 42.585938 -79 42.53125 -76.851562 42.46875 -74.15625 C 42.40625 -71.46875 42.34375 -68.46875 42.28125 -65.15625 C 42.226562 -61.851562 42.203125 -58.488281 42.203125 -55.0625 C 42.203125 -51.632812 42.226562 -48.367188 42.28125 -45.265625 C 42.34375 -42.160156 42.445312 -39.453125 42.59375 -37.140625 C 42.75 -34.835938 42.941406 -33.1875 43.171875 -32.1875 Z M 43.171875 -32.1875 "/></g></g></g><g fill="#00c061" fill-opacity="1"><g transform="translate(110.186561, 176.134539)"><g><path d="M 91.765625 -50.890625 C 91.765625 -50.890625 92.296875 -50.34375 93.359375 -49.25 C 94.421875 -48.15625 95.820312 -46.707031 97.5625 -44.90625 C 99.3125 -43.101562 101.21875 -41.078125 103.28125 -38.828125 C 105.351562 -36.585938 107.421875 -34.3125 109.484375 -32 C 111.554688 -29.695312 113.4375 -27.507812 115.125 -25.4375 C 116.8125 -23.375 118.128906 -21.601562 119.078125 -20.125 C 117.066406 -18.226562 115.257812 -16.4375 113.65625 -14.75 C 112.0625 -13.070312 110.46875 -11.421875 108.875 -9.796875 C 107.28125 -8.171875 105.445312 -6.5 103.375 -4.78125 L 93 1.15625 L 92.5625 1.421875 C 92.5 1.359375 92.21875 1.296875 91.71875 1.234375 C 91.21875 1.179688 90.726562 1.125 90.25 1.0625 C 89.78125 1 89.546875 0.96875 89.546875 0.96875 L 61.171875 -44.859375 C 57.210938 -45.097656 53.785156 -45.410156 50.890625 -45.796875 C 47.992188 -46.179688 44.976562 -46.488281 41.84375 -46.71875 L 41.84375 -2.75 L 38.03125 -0.890625 L 18.796875 -2.21875 C 18.554688 -13.269531 18.300781 -24.007812 18.03125 -34.4375 C 17.769531 -44.875 17.519531 -54.734375 17.28125 -64.015625 C 17.050781 -73.296875 16.832031 -81.789062 16.625 -89.5 C 16.414062 -97.21875 16.222656 -103.882812 16.046875 -109.5 C 15.867188 -115.113281 15.734375 -119.457031 15.640625 -122.53125 C 15.554688 -125.601562 15.515625 -127.140625 15.515625 -127.140625 L 20.21875 -131.75 C 21.039062 -132.039062 22.21875 -132.332031 23.75 -132.625 C 25.289062 -132.925781 26.914062 -133.207031 28.625 -133.46875 C 30.34375 -133.738281 31.96875 -133.960938 33.5 -134.140625 C 35.039062 -134.316406 36.226562 -134.46875 37.0625 -134.59375 C 41.84375 -135.175781 46.742188 -135.554688 51.765625 -135.734375 C 56.796875 -135.910156 61.75 -135.941406 66.625 -135.828125 C 71.5 -135.710938 76.078125 -135.519531 80.359375 -135.25 C 84.648438 -134.988281 88.4375 -134.707031 91.71875 -134.40625 C 95 -134.113281 97.566406 -133.863281 99.421875 -133.65625 C 101.285156 -133.445312 102.21875 -133.34375 102.21875 -133.34375 C 102.875 -128.5625 103.226562 -123.195312 103.28125 -117.25 C 103.34375 -111.3125 103.148438 -105.179688 102.703125 -98.859375 C 102.265625 -92.535156 101.554688 -86.359375 100.578125 -80.328125 C 99.609375 -74.296875 98.382812 -68.738281 96.90625 -63.65625 C 95.425781 -58.570312 93.710938 -54.316406 91.765625 -50.890625 Z M 64.640625 -91.859375 L 37.421875 -91.40625 C 37.421875 -91.40625 37.359375 -90.753906 37.234375 -89.453125 C 37.117188 -88.160156 37 -86.609375 36.875 -84.796875 C 36.757812 -82.992188 36.65625 -81.296875 36.5625 -79.703125 C 36.476562 -78.109375 36.46875 -77.015625 36.53125 -76.421875 C 36.46875 -75.648438 36.507812 -74.570312 36.65625 -73.1875 C 36.8125 -71.800781 36.976562 -70.546875 37.15625 -69.421875 C 37.332031 -68.296875 37.421875 -67.734375 37.421875 -67.734375 C 37.421875 -67.734375 37.890625 -67.644531 38.828125 -67.46875 C 39.773438 -67.289062 40.867188 -67.140625 42.109375 -67.015625 C 43.347656 -66.898438 44.382812 -66.875 45.21875 -66.9375 C 45.75 -66.875 46.738281 -66.882812 48.1875 -66.96875 C 49.632812 -67.0625 51.285156 -67.195312 53.140625 -67.375 C 55.003906 -67.5625 56.820312 -67.753906 58.59375 -67.953125 C 60.375 -68.160156 61.835938 -68.320312 62.984375 -68.4375 C 64.140625 -68.5625 64.71875 -68.625 64.71875 -68.625 C 65.25 -70.875 65.546875 -73.328125 65.609375 -75.984375 C 65.671875 -78.640625 65.613281 -81.164062 65.4375 -83.5625 C 65.257812 -85.957031 65.082031 -87.9375 64.90625 -89.5 C 64.726562 -91.070312 64.640625 -91.859375 64.640625 -91.859375 Z M 64.640625 -91.859375 "/></g></g></g><g fill="#00c061" fill-opacity="1"><g transform="translate(218.058198, 176.134539)"><g><path d="M 12.0625 -40.078125 L 25.359375 -39.984375 C 25.359375 -39.984375 25.34375 -40.796875 25.3125 -42.421875 C 25.28125 -44.046875 25.265625 -46.25 25.265625 -49.03125 C 25.265625 -51.8125 25.25 -54.925781 25.21875 -58.375 C 25.195312 -61.832031 25.195312 -65.394531 25.21875 -69.0625 C 25.25 -72.726562 25.28125 -76.273438 25.3125 -79.703125 C 25.34375 -83.128906 25.390625 -86.175781 25.453125 -88.84375 L 13.65625 -89.1875 L 12.0625 -90.4375 C 11.820312 -90.675781 11.582031 -91.632812 11.34375 -93.3125 C 11.113281 -95 10.910156 -97.171875 10.734375 -99.828125 C 10.554688 -102.492188 10.390625 -105.375 10.234375 -108.46875 C 10.085938 -111.570312 9.96875 -114.660156 9.875 -117.734375 C 9.789062 -120.816406 9.71875 -123.640625 9.65625 -126.203125 C 9.601562 -128.773438 9.5625 -130.828125 9.53125 -132.359375 C 9.5 -133.898438 9.484375 -134.671875 9.484375 -134.671875 C 10.253906 -134.910156 11.820312 -135.160156 14.1875 -135.421875 C 16.550781 -135.691406 19.429688 -135.941406 22.828125 -136.171875 C 26.222656 -136.410156 29.84375 -136.601562 33.6875 -136.75 C 37.53125 -136.90625 41.375 -136.9375 45.21875 -136.84375 C 49.0625 -136.757812 52.609375 -136.539062 55.859375 -136.1875 C 59.109375 -135.832031 61.769531 -135.300781 63.84375 -134.59375 C 63.84375 -134.59375 63.914062 -133.894531 64.0625 -132.5 C 64.207031 -131.113281 64.382812 -129.253906 64.59375 -126.921875 C 64.800781 -124.585938 65.019531 -121.984375 65.25 -119.109375 C 65.488281 -116.242188 65.664062 -113.332031 65.78125 -110.375 C 65.90625 -107.425781 65.9375 -104.632812 65.875 -102 C 65.8125 -99.375 65.632812 -97.113281 65.34375 -95.21875 C 64.8125 -95.21875 63.789062 -95.1875 62.28125 -95.125 C 60.78125 -95.070312 59.125 -95 57.3125 -94.90625 C 55.507812 -94.820312 53.851562 -94.734375 52.34375 -94.640625 C 50.84375 -94.554688 49.769531 -94.484375 49.125 -94.421875 C 49.0625 -90.523438 48.96875 -86.046875 48.84375 -80.984375 C 48.726562 -75.929688 48.597656 -70.640625 48.453125 -65.109375 C 48.304688 -59.585938 48.15625 -54.109375 48 -48.671875 C 47.851562 -43.234375 47.722656 -38.179688 47.609375 -33.515625 C 48.203125 -33.453125 49.148438 -33.375 50.453125 -33.28125 C 51.753906 -33.195312 53.15625 -33.109375 54.65625 -33.015625 C 56.164062 -32.929688 57.582031 -32.859375 58.90625 -32.796875 C 60.238281 -32.742188 61.203125 -32.6875 61.796875 -32.625 C 62.148438 -30.382812 62.328125 -27.875 62.328125 -25.09375 C 62.328125 -22.3125 62.222656 -19.515625 62.015625 -16.703125 C 61.804688 -13.898438 61.566406 -11.332031 61.296875 -9 C 61.035156 -6.664062 60.800781 -4.785156 60.59375 -3.359375 C 60.394531 -1.941406 60.296875 -1.234375 60.296875 -1.234375 C 58.222656 -0.523438 55.632812 0.00390625 52.53125 0.359375 C 49.425781 0.710938 46.097656 0.929688 42.546875 1.015625 C 39.003906 1.109375 35.457031 1.078125 31.90625 0.921875 C 28.363281 0.773438 25.039062 0.582031 21.9375 0.34375 C 18.832031 0.113281 16.171875 -0.128906 13.953125 -0.390625 C 11.742188 -0.660156 10.253906 -0.914062 9.484375 -1.15625 C 9.484375 -1.15625 9.421875 -1.890625 9.296875 -3.359375 C 9.179688 -4.835938 9.050781 -6.800781 8.90625 -9.25 C 8.757812 -11.707031 8.671875 -14.398438 8.640625 -17.328125 C 8.609375 -20.253906 8.679688 -23.179688 8.859375 -26.109375 C 9.035156 -29.035156 9.375 -31.722656 9.875 -34.171875 C 10.382812 -36.628906 11.113281 -38.597656 12.0625 -40.078125 Z M 12.0625 -40.078125 "/></g></g></g><g fill="#00c061" fill-opacity="1"><g transform="translate(283.108212, 176.134539)"><g><path d="M 64.640625 -91.859375 L 37.421875 -91.40625 C 37.421875 -91.40625 37.359375 -90.753906 37.234375 -89.453125 C 37.117188 -88.160156 37 -86.609375 36.875 -84.796875 C 36.757812 -82.992188 36.65625 -81.296875 36.5625 -79.703125 C 36.476562 -78.109375 36.46875 -77.015625 36.53125 -76.421875 C 36.46875 -75.648438 36.507812 -74.570312 36.65625 -73.1875 C 36.8125 -71.800781 36.976562 -70.546875 37.15625 -69.421875 C 37.332031 -68.296875 37.421875 -67.734375 37.421875 -67.734375 C 37.421875 -67.734375 37.890625 -67.644531 38.828125 -67.46875 C 39.773438 -67.289062 40.867188 -67.140625 42.109375 -67.015625 C 43.347656 -66.898438 44.382812 -66.875 45.21875 -66.9375 C 45.75 -66.875 46.738281 -66.882812 48.1875 -66.96875 C 49.632812 -67.0625 51.285156 -67.195312 53.140625 -67.375 C 55.003906 -67.5625 56.820312 -67.753906 58.59375 -67.953125 C 60.375 -68.160156 61.835938 -68.320312 62.984375 -68.4375 C 64.140625 -68.5625 64.71875 -68.625 64.71875 -68.625 C 65.25 -70.875 65.546875 -73.328125 65.609375 -75.984375 C 65.671875 -78.640625 65.613281 -81.164062 65.4375 -83.5625 C 65.257812 -85.957031 65.082031 -87.9375 64.90625 -89.5 C 64.726562 -91.070312 64.640625 -91.859375 64.640625 -91.859375 Z M 41.84375 -46.71875 L 41.84375 -2.75 L 38.03125 -0.890625 L 18.796875 -2.21875 C 18.554688 -13.269531 18.300781 -23.96875 18.03125 -34.3125 C 17.769531 -44.65625 17.519531 -54.40625 17.28125 -63.5625 C 17.050781 -72.726562 16.832031 -81.078125 16.625 -88.609375 C 16.414062 -96.148438 16.222656 -102.664062 16.046875 -108.15625 C 15.867188 -113.65625 15.734375 -117.894531 15.640625 -120.875 C 15.554688 -123.863281 15.515625 -125.359375 15.515625 -125.359375 L 20.21875 -129.984375 C 21.039062 -130.273438 22.441406 -130.65625 24.421875 -131.125 C 26.398438 -131.601562 28.539062 -132.09375 30.84375 -132.59375 C 33.15625 -133.09375 35.300781 -133.519531 37.28125 -133.875 C 39.257812 -134.226562 40.664062 -134.46875 41.5 -134.59375 C 47.226562 -135.300781 52.972656 -135.65625 58.734375 -135.65625 C 64.492188 -135.65625 69.972656 -135.445312 75.171875 -135.03125 C 80.378906 -134.613281 85.019531 -134.140625 89.09375 -133.609375 C 93.175781 -133.078125 96.382812 -132.601562 98.71875 -132.1875 C 101.050781 -131.78125 102.21875 -131.578125 102.21875 -131.578125 C 102.875 -126.722656 103.289062 -121.3125 103.46875 -115.34375 C 103.644531 -109.375 103.660156 -103.179688 103.515625 -96.765625 C 103.367188 -90.359375 103.128906 -84.019531 102.796875 -77.75 C 102.472656 -71.488281 102.101562 -65.625 101.6875 -60.15625 C 101.28125 -54.6875 100.925781 -49.941406 100.625 -45.921875 C 93.0625 -45.335938 86.578125 -44.957031 81.171875 -44.78125 C 75.765625 -44.601562 71.140625 -44.554688 67.296875 -44.640625 C 63.453125 -44.734375 60.097656 -44.910156 57.234375 -45.171875 C 54.367188 -45.441406 51.738281 -45.707031 49.34375 -45.96875 C 46.945312 -46.238281 44.445312 -46.488281 41.84375 -46.71875 Z M 41.84375 -46.71875 "/></g></g></g></g></g><g transform="matrix(1, 0, 0, 1, 748, 758)"><g clip-path="url(#f68560b434)"><g fill="#00c061" fill-opacity="1"><g transform="translate(1.646453, 166.03761)"><g><path d="M 10.59375 -125.9375 C 12.65625 -126.21875 15.476562 -126.367188 19.0625 -126.390625 C 22.65625 -126.421875 26.734375 -126.351562 31.296875 -126.1875 C 35.859375 -126.019531 40.671875 -125.8125 45.734375 -125.5625 C 50.796875 -125.3125 55.84375 -125.003906 60.875 -124.640625 C 65.914062 -124.285156 70.71875 -123.925781 75.28125 -123.5625 C 79.84375 -123.195312 83.914062 -122.847656 87.5 -122.515625 C 91.09375 -122.179688 93.921875 -121.90625 95.984375 -121.6875 C 96.085938 -120.40625 96.179688 -118.457031 96.265625 -115.84375 C 96.347656 -113.226562 96.429688 -110.222656 96.515625 -106.828125 C 96.597656 -103.429688 96.664062 -99.925781 96.71875 -96.3125 C 96.78125 -92.695312 96.835938 -89.203125 96.890625 -85.828125 C 96.953125 -82.460938 96.992188 -79.5 97.015625 -76.9375 C 97.046875 -74.382812 97.0625 -72.46875 97.0625 -71.1875 C 97.0625 -71.1875 96.976562 -70.644531 96.8125 -69.5625 C 96.644531 -68.476562 96.4375 -67.171875 96.1875 -65.640625 C 95.9375 -64.109375 95.695312 -62.617188 95.46875 -61.171875 C 95.25 -59.722656 95.109375 -58.582031 95.046875 -57.75 C 94.992188 -56.914062 95.050781 -56.691406 95.21875 -57.078125 C 94.550781 -56.910156 93.019531 -56.800781 90.625 -56.75 C 88.238281 -56.695312 85.289062 -56.65625 81.78125 -56.625 C 78.28125 -56.59375 74.523438 -56.550781 70.515625 -56.5 C 66.515625 -56.445312 62.523438 -56.363281 58.546875 -56.25 C 54.566406 -56.132812 50.894531 -55.96875 47.53125 -55.75 C 44.164062 -55.53125 41.382812 -55.238281 39.1875 -54.875 C 36.988281 -54.507812 35.691406 -54.019531 35.296875 -53.40625 C 34.242188 -51.90625 33.550781 -50.390625 33.21875 -48.859375 C 32.882812 -47.328125 32.726562 -46.0625 32.75 -45.0625 C 32.78125 -44.0625 32.796875 -43.5625 32.796875 -43.5625 C 32.796875 -43.5625 32.9375 -43.03125 33.21875 -41.96875 C 33.5 -40.914062 33.832031 -39.648438 34.21875 -38.171875 C 34.601562 -36.703125 34.976562 -35.34375 35.34375 -34.09375 C 35.707031 -32.84375 35.972656 -32.050781 36.140625 -31.71875 C 36.359375 -31.320312 37.09375 -30.984375 38.34375 -30.703125 C 39.601562 -30.429688 41.078125 -30.210938 42.765625 -30.046875 C 44.460938 -29.878906 46.171875 -29.738281 47.890625 -29.625 C 49.617188 -29.507812 51.109375 -29.4375 52.359375 -29.40625 C 53.617188 -29.382812 54.414062 -29.375 54.75 -29.375 C 57.75 -29.375 60.320312 -29.398438 62.46875 -29.453125 C 64.613281 -29.515625 66.5625 -29.597656 68.3125 -29.703125 C 70.0625 -29.816406 71.851562 -29.914062 73.6875 -30 C 75.53125 -30.082031 77.578125 -30.148438 79.828125 -30.203125 C 82.078125 -30.265625 84.816406 -30.296875 88.046875 -30.296875 L 88.46875 0.828125 C 85.519531 1.160156 82.097656 1.535156 78.203125 1.953125 C 74.304688 2.378906 70.203125 2.800781 65.890625 3.21875 C 61.578125 3.632812 57.25 4.035156 52.90625 4.421875 C 48.570312 4.804688 44.441406 5.164062 40.515625 5.5 C 36.597656 5.84375 33.109375 6.148438 30.046875 6.421875 C 26.984375 6.703125 24.578125 6.910156 22.828125 7.046875 C 21.078125 7.191406 20.203125 7.265625 20.203125 7.265625 C 17.640625 0.753906 15.535156 -6.113281 13.890625 -13.34375 C 12.253906 -20.582031 10.960938 -27.898438 10.015625 -35.296875 C 9.066406 -42.804688 8.410156 -50.25 8.046875 -57.625 C 7.691406 -65 7.539062 -72.066406 7.59375 -78.828125 C 7.644531 -85.585938 7.820312 -91.816406 8.125 -97.515625 C 8.4375 -103.222656 8.785156 -108.203125 9.171875 -112.453125 C 9.566406 -116.710938 9.898438 -120.023438 10.171875 -122.390625 C 10.453125 -124.753906 10.59375 -125.9375 10.59375 -125.9375 Z M 10.59375 -125.9375 "/></g></g></g><g fill="#00c061" fill-opacity="1"><g transform="translate(95.340997, 166.03761)"><g><path d="M 63.34375 -66.765625 C 63.5625 -68.992188 63.3125 -70.578125 62.59375 -71.515625 C 61.875 -72.460938 60.71875 -73.046875 59.125 -73.265625 C 57.539062 -73.492188 55.5 -73.609375 53 -73.609375 C 48.601562 -73.609375 45.015625 -73.441406 42.234375 -73.109375 C 39.453125 -72.773438 37.304688 -72.382812 35.796875 -71.9375 C 34.296875 -71.488281 33.265625 -71.097656 32.703125 -70.765625 C 32.148438 -70.429688 31.875 -70.265625 31.875 -70.265625 C 31.539062 -69.765625 31.332031 -68.691406 31.25 -67.046875 C 31.164062 -65.410156 31.164062 -63.507812 31.25 -61.34375 C 31.332031 -59.175781 31.429688 -57.046875 31.546875 -54.953125 C 31.660156 -52.867188 31.769531 -51.144531 31.875 -49.78125 C 31.988281 -48.414062 32.046875 -47.734375 32.046875 -47.734375 L 33.546875 -39.140625 L 35.796875 -36.140625 C 36.128906 -35.859375 37.003906 -35.660156 38.421875 -35.546875 C 39.847656 -35.441406 41.492188 -35.414062 43.359375 -35.46875 C 45.222656 -35.519531 47.046875 -35.585938 48.828125 -35.671875 C 50.609375 -35.753906 52.09375 -35.820312 53.28125 -35.875 C 54.476562 -35.9375 55.078125 -35.941406 55.078125 -35.890625 C 55.078125 -35.828125 55.367188 -35.894531 55.953125 -36.09375 C 56.535156 -36.289062 57.101562 -36.5 57.65625 -36.71875 C 58.21875 -36.945312 58.5 -37.0625 58.5 -37.0625 C 59.226562 -37.113281 59.84375 -37.945312 60.34375 -39.5625 C 60.84375 -41.175781 61.257812 -43.21875 61.59375 -45.6875 C 61.925781 -48.164062 62.203125 -50.78125 62.421875 -53.53125 C 62.648438 -56.289062 62.832031 -58.851562 62.96875 -61.21875 C 63.101562 -63.582031 63.226562 -65.429688 63.34375 -66.765625 Z M 93.71875 -121.6875 L 96.984375 -117.515625 C 96.984375 -117.515625 97.109375 -116.234375 97.359375 -113.671875 C 97.609375 -111.109375 97.859375 -107.5625 98.109375 -103.03125 C 98.359375 -98.5 98.507812 -93.253906 98.5625 -87.296875 C 98.613281 -81.335938 98.472656 -74.9375 98.140625 -68.09375 C 97.804688 -61.257812 97.179688 -54.238281 96.265625 -47.03125 C 95.347656 -39.820312 94 -32.695312 92.21875 -25.65625 C 90.4375 -18.625 88.15625 -11.960938 85.375 -5.671875 C 85.375 -5.671875 85.007812 -5.304688 84.28125 -4.578125 C 83.5625 -3.859375 82.726562 -3.039062 81.78125 -2.125 C 80.84375 -1.207031 80.007812 -0.40625 79.28125 0.28125 C 78.5625 0.976562 78.203125 1.300781 78.203125 1.25 C 78.203125 1.195312 77.445312 1.347656 75.9375 1.703125 C 74.4375 2.066406 72.394531 2.484375 69.8125 2.953125 C 67.226562 3.429688 64.25 3.847656 60.875 4.203125 C 57.507812 4.566406 53.960938 4.722656 50.234375 4.671875 C 46.515625 4.617188 42.773438 4.269531 39.015625 3.625 C 35.265625 2.988281 31.675781 1.90625 28.25 0.375 C 24.832031 -1.15625 21.757812 -3.253906 19.03125 -5.921875 L 17.4375 -11.6875 C 17.4375 -11.6875 17.203125 -12.742188 16.734375 -14.859375 C 16.265625 -16.972656 15.664062 -19.945312 14.9375 -23.78125 C 14.21875 -27.625 13.453125 -32.160156 12.640625 -37.390625 C 11.835938 -42.617188 11.128906 -48.320312 10.515625 -54.5 C 9.898438 -60.675781 9.453125 -67.1875 9.171875 -74.03125 C 8.898438 -80.875 8.898438 -87.84375 9.171875 -94.9375 C 9.453125 -102.03125 10.125 -109.050781 11.1875 -116 L 16.78125 -121.6875 C 16.78125 -121.6875 17.960938 -121.976562 20.328125 -122.5625 C 22.691406 -123.144531 26.113281 -123.78125 30.59375 -124.46875 C 35.070312 -125.164062 40.46875 -125.65625 46.78125 -125.9375 C 53.09375 -126.21875 60.195312 -126.066406 68.09375 -125.484375 C 76 -124.898438 84.539062 -123.632812 93.71875 -121.6875 Z M 93.71875 -121.6875 "/></g></g></g><g fill="#00c061" fill-opacity="1"><g transform="translate(190.370791, 166.03761)"><g><path d="M 86.375 -47.90625 C 86.375 -47.90625 86.875 -47.390625 87.875 -46.359375 C 88.882812 -45.328125 90.207031 -43.960938 91.84375 -42.265625 C 93.488281 -40.566406 95.285156 -38.660156 97.234375 -36.546875 C 99.179688 -34.441406 101.125 -32.300781 103.0625 -30.125 C 105.007812 -27.957031 106.773438 -25.898438 108.359375 -23.953125 C 109.953125 -22.003906 111.191406 -20.332031 112.078125 -18.9375 C 110.191406 -17.164062 108.492188 -15.484375 106.984375 -13.890625 C 105.484375 -12.304688 103.984375 -10.75 102.484375 -9.21875 C 100.984375 -7.6875 99.257812 -6.113281 97.3125 -4.5 L 87.546875 1.078125 L 87.125 1.328125 C 87.070312 1.273438 86.804688 1.21875 86.328125 1.15625 C 85.859375 1.101562 85.398438 1.050781 84.953125 1 C 84.515625 0.945312 84.296875 0.921875 84.296875 0.921875 L 57.59375 -42.234375 C 53.863281 -42.453125 50.632812 -42.742188 47.90625 -43.109375 C 45.175781 -43.472656 42.335938 -43.765625 39.390625 -43.984375 L 39.390625 -2.59375 L 35.796875 -0.828125 L 17.6875 -2.09375 C 17.46875 -12.488281 17.234375 -22.597656 16.984375 -32.421875 C 16.734375 -42.242188 16.492188 -51.519531 16.265625 -60.25 C 16.046875 -68.988281 15.835938 -76.988281 15.640625 -84.25 C 15.453125 -91.507812 15.273438 -97.78125 15.109375 -103.0625 C 14.941406 -108.351562 14.816406 -112.441406 14.734375 -115.328125 C 14.648438 -118.222656 14.609375 -119.671875 14.609375 -119.671875 L 19.03125 -124.015625 C 19.8125 -124.296875 20.921875 -124.570312 22.359375 -124.84375 C 23.804688 -125.125 25.335938 -125.390625 26.953125 -125.640625 C 28.566406 -125.890625 30.097656 -126.097656 31.546875 -126.265625 C 32.992188 -126.429688 34.109375 -126.570312 34.890625 -126.6875 C 39.390625 -127.25 44.003906 -127.613281 48.734375 -127.78125 C 53.460938 -127.945312 58.125 -127.972656 62.71875 -127.859375 C 67.3125 -127.742188 71.625 -127.5625 75.65625 -127.3125 C 79.6875 -127.0625 83.242188 -126.796875 86.328125 -126.515625 C 89.421875 -126.242188 91.84375 -126.007812 93.59375 -125.8125 C 95.351562 -125.613281 96.234375 -125.515625 96.234375 -125.515625 C 96.835938 -121.015625 97.164062 -115.96875 97.21875 -110.375 C 97.28125 -104.78125 97.101562 -99.003906 96.6875 -93.046875 C 96.269531 -87.097656 95.601562 -81.285156 94.6875 -75.609375 C 93.769531 -69.929688 92.613281 -64.703125 91.21875 -59.921875 C 89.832031 -55.140625 88.21875 -51.132812 86.375 -47.90625 Z M 60.84375 -86.46875 L 35.21875 -86.046875 C 35.21875 -86.046875 35.160156 -85.429688 35.046875 -84.203125 C 34.941406 -82.984375 34.832031 -81.523438 34.71875 -79.828125 C 34.601562 -78.128906 34.503906 -76.53125 34.421875 -75.03125 C 34.335938 -73.53125 34.328125 -72.5 34.390625 -71.9375 C 34.328125 -71.21875 34.363281 -70.203125 34.5 -68.890625 C 34.644531 -67.585938 34.800781 -66.40625 34.96875 -65.34375 C 35.132812 -64.289062 35.21875 -63.765625 35.21875 -63.765625 C 35.21875 -63.765625 35.660156 -63.679688 36.546875 -63.515625 C 37.441406 -63.347656 38.472656 -63.207031 39.640625 -63.09375 C 40.804688 -62.976562 41.78125 -62.953125 42.5625 -63.015625 C 43.0625 -62.953125 43.992188 -62.960938 45.359375 -63.046875 C 46.722656 -63.128906 48.28125 -63.253906 50.03125 -63.421875 C 51.78125 -63.585938 53.488281 -63.769531 55.15625 -63.96875 C 56.832031 -64.164062 58.210938 -64.316406 59.296875 -64.421875 C 60.378906 -64.535156 60.921875 -64.59375 60.921875 -64.59375 C 61.421875 -66.707031 61.695312 -69.015625 61.75 -71.515625 C 61.8125 -74.023438 61.757812 -76.40625 61.59375 -78.65625 C 61.425781 -80.914062 61.257812 -82.78125 61.09375 -84.25 C 60.925781 -85.726562 60.84375 -86.46875 60.84375 -86.46875 Z M 60.84375 -86.46875 "/></g></g></g><g fill="#00c061" fill-opacity="1"><g transform="translate(291.909912, 166.03761)"><g><path d="M 95.8125 -92.96875 C 95.8125 -92.96875 95.320312 -92.925781 94.34375 -92.84375 C 93.375 -92.757812 91.539062 -92.601562 88.84375 -92.375 C 86.144531 -92.15625 82.207031 -91.90625 77.03125 -91.625 C 71.851562 -91.351562 65.035156 -90.992188 56.578125 -90.546875 C 56.578125 -90.546875 56.550781 -89.847656 56.5 -88.453125 C 56.445312 -87.066406 56.460938 -85.21875 56.546875 -82.90625 C 56.628906 -80.601562 56.878906 -78.113281 57.296875 -75.4375 C 57.710938 -72.769531 58.363281 -70.128906 59.25 -67.515625 L 80.875 -67.59375 C 80.875 -67.59375 81.382812 -67.609375 82.40625 -67.640625 C 83.4375 -67.671875 84.632812 -67.695312 86 -67.71875 C 87.363281 -67.75 88.5625 -67.773438 89.59375 -67.796875 C 90.625 -67.828125 91.109375 -67.875 91.046875 -67.9375 C 90.992188 -67.988281 91.035156 -67.597656 91.171875 -66.765625 C 91.316406 -65.929688 91.472656 -64.957031 91.640625 -63.84375 C 91.804688 -62.726562 91.957031 -61.753906 92.09375 -60.921875 C 92.226562 -60.085938 92.296875 -59.671875 92.296875 -59.671875 L 92.296875 -49.328125 C 92.296875 -49.328125 88.847656 -49.144531 81.953125 -48.78125 C 75.054688 -48.414062 64.789062 -48.179688 51.15625 -48.078125 L 50.578125 -26.953125 L 52.65625 -24.703125 L 93.390625 -24.375 C 93.390625 -24.375 93.023438 -24.414062 92.296875 -24.5 C 91.578125 -24.582031 91.160156 -24.648438 91.046875 -24.703125 C 90.992188 -24.753906 91.285156 -24.570312 91.921875 -24.15625 C 92.566406 -23.738281 93.207031 -23.320312 93.84375 -22.90625 C 94.488281 -22.488281 94.8125 -22.28125 94.8125 -22.28125 L 95.640625 1.421875 C 95.640625 1.421875 95.75 1.390625 95.96875 1.328125 C 96.195312 1.273438 96.195312 1.21875 95.96875 1.15625 C 95.75 1.101562 94.984375 1.0625 93.671875 1.03125 C 92.367188 1.007812 90.203125 0.984375 87.171875 0.953125 C 84.140625 0.929688 79.894531 0.945312 74.4375 1 C 67.65625 1.050781 61.3125 1.007812 55.40625 0.875 C 49.507812 0.738281 44.304688 0.554688 39.796875 0.328125 C 35.296875 0.109375 31.679688 -0.109375 28.953125 -0.328125 C 26.234375 -0.554688 24.648438 -0.722656 24.203125 -0.828125 C 23.585938 -0.992188 22.988281 -1.59375 22.40625 -2.625 C 21.820312 -3.65625 21.238281 -4.945312 20.65625 -6.5 C 20.070312 -8.0625 19.472656 -9.648438 18.859375 -11.265625 C 18.410156 -12.546875 18.003906 -14.851562 17.640625 -18.1875 C 17.285156 -21.53125 16.992188 -25.578125 16.765625 -30.328125 C 16.546875 -35.085938 16.351562 -40.273438 16.1875 -45.890625 C 16.019531 -51.515625 15.910156 -57.25 15.859375 -63.09375 C 15.804688 -68.9375 15.765625 -74.582031 15.734375 -80.03125 C 15.703125 -85.488281 15.703125 -90.46875 15.734375 -94.96875 C 15.765625 -99.476562 15.789062 -103.179688 15.8125 -106.078125 C 15.84375 -108.972656 15.882812 -110.753906 15.9375 -111.421875 C 16.050781 -113.203125 16.382812 -115.019531 16.9375 -116.875 C 17.5 -118.738281 18.039062 -120.296875 18.5625 -121.546875 C 19.09375 -122.804688 19.359375 -123.4375 19.359375 -123.4375 L 90.96875 -125.265625 L 96.234375 -124.9375 C 96.234375 -124.9375 96.34375 -124.253906 96.5625 -122.890625 C 96.78125 -121.523438 97.015625 -119.71875 97.265625 -117.46875 C 97.515625 -115.21875 97.679688 -112.6875 97.765625 -109.875 C 97.847656 -107.0625 97.75 -104.191406 97.46875 -101.265625 C 97.195312 -98.347656 96.644531 -95.582031 95.8125 -92.96875 Z M 95.8125 -92.96875 "/></g></g></g></g></g></svg>